simulate cocontraction
version=1
nRows=4
nColumns=195
inDegrees=yes
endheader
time	/jointset/ground_platform/platform_rx/value	/jointset/ground_platform/platform_rx/speed	/jointset/ground_platform/platform_ry/value	/jointset/ground_platform/platform_ry/speed	/jointset/ground_platform/platform_rz/value	/jointset/ground_platform/platform_rz/speed	/jointset/ground_platform/platform_ty/value	/jointset/ground_platform/platform_ty/speed	/jointset/ground_pelvis/pelvis_tilt/value	/jointset/ground_pelvis/pelvis_tilt/speed	/jointset/ground_pelvis/pelvis_list/value	/jointset/ground_pelvis/pelvis_list/speed	/jointset/ground_pelvis/pelvis_rotation/value	/jointset/ground_pelvis/pelvis_rotation/speed	/jointset/ground_pelvis/pelvis_tx/value	/jointset/ground_pelvis/pelvis_tx/speed	/jointset/ground_pelvis/pelvis_ty/value	/jointset/ground_pelvis/pelvis_ty/speed	/jointset/ground_pelvis/pelvis_tz/value	/jointset/ground_pelvis/pelvis_tz/speed	/jointset/hip_r/hip_flexion_r/value	/jointset/hip_r/hip_flexion_r/speed	/jointset/hip_r/hip_adduction_r/value	/jointset/hip_r/hip_adduction_r/speed	/jointset/hip_r/hip_rotation_r/value	/jointset/hip_r/hip_rotation_r/speed	/jointset/knee_r/knee_angle_r/value	/jointset/knee_r/knee_angle_r/speed	/jointset/ankle_r/ankle_angle_r/value	/jointset/ankle_r/ankle_angle_r/speed	/jointset/subtalar_r/subtalar_angle_r/value	/jointset/subtalar_r/subtalar_angle_r/speed	/jointset/mtp_r/mtp_angle_r/value	/jointset/mtp_r/mtp_angle_r/speed	/jointset/hip_l/hip_flexion_l/value	/jointset/hip_l/hip_flexion_l/speed	/jointset/hip_l/hip_adduction_l/value	/jointset/hip_l/hip_adduction_l/speed	/jointset/hip_l/hip_rotation_l/value	/jointset/hip_l/hip_rotation_l/speed	/jointset/knee_l/knee_angle_l/value	/jointset/knee_l/knee_angle_l/speed	/jointset/ankle_l/ankle_angle_l/value	/jointset/ankle_l/ankle_angle_l/speed	/jointset/subtalar_l/subtalar_angle_l/value	/jointset/subtalar_l/subtalar_angle_l/speed	/jointset/mtp_l/mtp_angle_l/value	/jointset/mtp_l/mtp_angle_l/speed	/jointset/back/lumbar_extension/value	/jointset/back/lumbar_extension/speed	/jointset/back/lumbar_bending/value	/jointset/back/lumbar_bending/speed	/jointset/back/lumbar_rotation/value	/jointset/back/lumbar_rotation/speed	/forceset/glut_med1_r/activation	/forceset/glut_med1_r/fiber_length	/forceset/glut_med2_r/activation	/forceset/glut_med2_r/fiber_length	/forceset/glut_med3_r/activation	/forceset/glut_med3_r/fiber_length	/forceset/bifemlh_r/activation	/forceset/bifemlh_r/fiber_length	/forceset/bifemsh_r/activation	/forceset/bifemsh_r/fiber_length	/forceset/sar_r/activation	/forceset/sar_r/fiber_length	/forceset/add_mag2_r/activation	/forceset/add_mag2_r/fiber_length	/forceset/tfl_r/activation	/forceset/tfl_r/fiber_length	/forceset/pect_r/activation	/forceset/pect_r/fiber_length	/forceset/grac_r/activation	/forceset/grac_r/fiber_length	/forceset/glut_max1_r/activation	/forceset/glut_max1_r/fiber_length	/forceset/glut_max2_r/activation	/forceset/glut_max2_r/fiber_length	/forceset/glut_max3_r/activation	/forceset/glut_max3_r/fiber_length	/forceset/iliacus_r/activation	/forceset/iliacus_r/fiber_length	/forceset/psoas_r/activation	/forceset/psoas_r/fiber_length	/forceset/quad_fem_r/activation	/forceset/quad_fem_r/fiber_length	/forceset/gem_r/activation	/forceset/gem_r/fiber_length	/forceset/peri_r/activation	/forceset/peri_r/fiber_length	/forceset/rect_fem_r/activation	/forceset/rect_fem_r/fiber_length	/forceset/vas_int_r/activation	/forceset/vas_int_r/fiber_length	/forceset/med_gas_r/activation	/forceset/med_gas_r/fiber_length	/forceset/lat_gas_r/activation	/forceset/lat_gas_r/fiber_length	/forceset/soleus_r/activation	/forceset/soleus_r/fiber_length	/forceset/tib_post_r/activation	/forceset/tib_post_r/fiber_length	/forceset/flex_dig_r/activation	/forceset/flex_dig_r/fiber_length	/forceset/flex_hal_r/activation	/forceset/flex_hal_r/fiber_length	/forceset/tib_ant_r/activation	/forceset/tib_ant_r/fiber_length	/forceset/per_brev_r/activation	/forceset/per_brev_r/fiber_length	/forceset/per_long_r/activation	/forceset/per_long_r/fiber_length	/forceset/per_tert_r/activation	/forceset/per_tert_r/fiber_length	/forceset/ext_dig_r/activation	/forceset/ext_dig_r/fiber_length	/forceset/ext_hal_r/activation	/forceset/ext_hal_r/fiber_length	/forceset/glut_med1_l/activation	/forceset/glut_med1_l/fiber_length	/forceset/glut_med2_l/activation	/forceset/glut_med2_l/fiber_length	/forceset/glut_med3_l/activation	/forceset/glut_med3_l/fiber_length	/forceset/bifemlh_l/activation	/forceset/bifemlh_l/fiber_length	/forceset/bifemsh_l/activation	/forceset/bifemsh_l/fiber_length	/forceset/sar_l/activation	/forceset/sar_l/fiber_length	/forceset/add_mag2_l/activation	/forceset/add_mag2_l/fiber_length	/forceset/tfl_l/activation	/forceset/tfl_l/fiber_length	/forceset/pect_l/activation	/forceset/pect_l/fiber_length	/forceset/grac_l/activation	/forceset/grac_l/fiber_length	/forceset/glut_max1_l/activation	/forceset/glut_max1_l/fiber_length	/forceset/glut_max2_l/activation	/forceset/glut_max2_l/fiber_length	/forceset/glut_max3_l/activation	/forceset/glut_max3_l/fiber_length	/forceset/iliacus_l/activation	/forceset/iliacus_l/fiber_length	/forceset/psoas_l/activation	/forceset/psoas_l/fiber_length	/forceset/quad_fem_l/activation	/forceset/quad_fem_l/fiber_length	/forceset/gem_l/activation	/forceset/gem_l/fiber_length	/forceset/peri_l/activation	/forceset/peri_l/fiber_length	/forceset/rect_fem_l/activation	/forceset/rect_fem_l/fiber_length	/forceset/vas_int_l/activation	/forceset/vas_int_l/fiber_length	/forceset/med_gas_l/activation	/forceset/med_gas_l/fiber_length	/forceset/lat_gas_l/activation	/forceset/lat_gas_l/fiber_length	/forceset/soleus_l/activation	/forceset/soleus_l/fiber_length	/forceset/tib_post_l/activation	/forceset/tib_post_l/fiber_length	/forceset/flex_dig_l/activation	/forceset/flex_dig_l/fiber_length	/forceset/flex_hal_l/activation	/forceset/flex_hal_l/fiber_length	/forceset/tib_ant_l/activation	/forceset/tib_ant_l/fiber_length	/forceset/per_brev_l/activation	/forceset/per_brev_l/fiber_length	/forceset/per_long_l/activation	/forceset/per_long_l/fiber_length	/forceset/per_tert_l/activation	/forceset/per_tert_l/fiber_length	/forceset/ext_dig_l/activation	/forceset/ext_dig_l/fiber_length	/forceset/ext_hal_l/activation	/forceset/ext_hal_l/fiber_length	/forceset/ercspn_r/activation	/forceset/ercspn_r/fiber_length	/forceset/ercspn_l/activation	/forceset/ercspn_l/fiber_length	/forceset/intobl_r/activation	/forceset/intobl_r/fiber_length	/forceset/intobl_l/activation	/forceset/intobl_l/fiber_length	/forceset/extobl_r/activation	/forceset/extobl_r/fiber_length	/forceset/extobl_l/activation	/forceset/extobl_l/fiber_length
      0.37146925	     20.00000000	     -0.00000000	     -0.00000000	      0.00000000	      0.00000000	      0.00000000	      0.25000000	      0.00000000	     -4.21120596	     75.74660493	    -10.44584185	   -159.34450884	     -6.48434202	    -87.31544533	      0.03667374	     -0.23443810	      1.04545370	     -2.71059426	     -0.00133107	     -0.07126094	     40.59190123	    609.93780542	      4.01782238	    -28.61561801	     -8.29618024	   -139.23511537	    -75.81260997	  -1125.08516441	     22.10495570	    303.21686066	     -2.59517421	     37.82780630	      0.00000000	      0.00000000	    -19.99999998	      0.00000000	     10.00000028	      0.00000000	      4.99999985	      0.00000000	   -119.99999986	     -0.00000000	     11.49999977	     -0.00000000	     -0.03000064	      0.00000000	     -0.00000000	      0.00000000	    -13.31355629	   -179.46305904	     11.89427413	    161.47133515	     10.49882267	    133.71175397	     -0.02238419	      0.05691075	     -0.02238419	      0.09614289	     -0.02238419	      0.07796016	     -0.02238419	      0.09376220	     -0.02238419	      0.14557502	     -0.02238419	      0.41204137	     -0.02238419	      0.09096763	     -0.02238419	      0.09506787	     -0.02238419	      0.05642554	     -0.02238419	      0.27971866	     -0.02238419	      0.10515198	     -0.02238419	      0.11682543	     -0.02238419	      0.13606795	     -0.02238419	      0.08949471	     -0.02238419	      0.08373569	     -0.02238419	      0.04580478	     -0.02238419	      0.02280884	     -0.02238419	      0.02869512	     -0.02238419	      0.12410848	     -0.02238419	      0.12031352	     -0.02238419	      0.08709380	     -0.02238419	      0.06187930	     -0.02238419	      0.09214730	      0.20000000	      0.03493541	      0.20000000	      0.03062427	      0.20000000	      0.04004399	      0.20000000	      0.06188664	      0.60000000	      0.04670129	      0.60000000	      0.04544799	      0.60000000	      0.06766387	      0.60000000	      0.07466055	      0.20000000	      0.08505918	     -0.02238419	      0.04646954	     -0.02238419	      0.07924345	     -0.02238419	      0.06066849	     -0.02238419	      0.02207317	     -0.02238419	      0.12238178	     -0.02238419	      0.45556126	     -0.02238419	      0.05828642	     -0.02238419	      0.13391495	     -0.02238419	      0.07307389	     -0.02238419	      0.24301553	     -0.02238419	      0.06638073	     -0.02238419	      0.06554424	     -0.02238419	      0.05770037	     -0.02238419	      0.11895704	     -0.02238419	      0.11276383	     -0.02238419	      0.04385542	     -0.02238419	      0.02477863	     -0.02238419	      0.02332648	     -0.02238419	      0.18252185	     -0.02238419	      0.13945923	     -0.02238419	      0.06773760	     -0.02238419	      0.04190389	     -0.02238419	      0.08593352	     -0.02238419	      0.03561976	     -0.02238419	      0.03422885	     -0.02238419	      0.04262486	     -0.02238419	      0.07211219	     -0.02238419	      0.05030461	     -0.02238419	      0.05155983	     -0.02238419	      0.07464108	     -0.02238419	      0.08888363	     -0.02238419	      0.09641129	     -0.02238419	      0.11813849	     -0.02238419	      0.13703611	     -0.02238419	      0.08307370	     -0.02238419	      0.10024212	     -0.02238419	      0.11098281	     -0.02238419	      0.13597283
      0.37158340	     20.00000000	     -0.00000000	     -0.00000000	      0.00000000	      0.00000000	      0.00000000	      0.25000000	      0.00000000	     -4.20255557	     75.81750222	    -10.46400415	   -158.87916511	     -6.49427674	    -86.75259729	      0.03664703	     -0.23366447	      1.04514419	     -2.71220961	     -0.00133923	     -0.07181610	     40.66149135	    609.33829216	      4.01449769	    -29.62875975	     -8.31205411	   -138.88917097	    -75.94095618	  -1123.64622056	     22.13989022	    308.80514180	     -2.59031450	     47.25874473	      0.00000000	      0.00000000	    -19.99999998	      0.00000000	     10.00000028	      0.00000000	      4.99999985	      0.00000000	   -119.99999986	     -0.00000000	     11.49999977	     -0.00000000	     -0.03000064	      0.00000000	     -0.00000000	      0.00000000	    -13.33403344	   -179.31941481	     11.91267402	    160.91589849	     10.51404479	    132.99897183	     -0.02239889	      0.05692249	     -0.02239889	      0.09616908	     -0.02239889	      0.07798763	     -0.02239889	      0.09378564	     -0.02239889	      0.14552416	     -0.02239889	      0.41190266	     -0.02239889	      0.09102784	     -0.02239889	      0.09503910	     -0.02239889	      0.05639614	     -0.02239889	      0.27967811	     -0.02239889	      0.10519300	     -0.02239889	      0.11687577	     -0.02239889	      0.13614715	     -0.02239889	      0.08946532	     -0.02239889	      0.08370630	     -0.02239889	      0.04582905	     -0.02239889	      0.02281047	     -0.02239889	      0.02870729	     -0.02239889	      0.12411733	     -0.02239889	      0.12038238	     -0.02239889	      0.08706735	     -0.02239889	      0.06186048	     -0.02239889	      0.09216586	      0.20000000	      0.03493581	      0.20000000	      0.03062488	      0.20000000	      0.04004471	      0.20000000	      0.06188684	      0.60000000	      0.04669734	      0.60000000	      0.04544622	      0.60000000	      0.06766063	      0.60000000	      0.07465718	      0.20000000	      0.08505718	     -0.02239889	      0.04646954	     -0.02239889	      0.07924345	     -0.02239889	      0.06066849	     -0.02239889	      0.02207317	     -0.02239889	      0.12238178	     -0.02239889	      0.45556126	     -0.02239889	      0.05828642	     -0.02239889	      0.13391495	     -0.02239889	      0.07307389	     -0.02239889	      0.24301553	     -0.02239889	      0.06638073	     -0.02239889	      0.06554424	     -0.02239889	      0.05770037	     -0.02239889	      0.11895704	     -0.02239889	      0.11276383	     -0.02239889	      0.04385542	     -0.02239889	      0.02477863	     -0.02239889	      0.02332648	     -0.02239889	      0.18252185	     -0.02239889	      0.13945923	     -0.02239889	      0.06773760	     -0.02239889	      0.04190389	     -0.02239889	      0.08593352	     -0.02239889	      0.03561976	     -0.02239889	      0.03422886	     -0.02239889	      0.04262488	     -0.02239889	      0.07211219	     -0.02239889	      0.05030461	     -0.02239889	      0.05155983	     -0.02239889	      0.07464108	     -0.02239889	      0.08888363	     -0.02239889	      0.09641129	     -0.02239889	      0.11813305	     -0.02239889	      0.13705950	     -0.02239889	      0.08304430	     -0.02239889	      0.10024714	     -0.02239889	      0.11094753	     -0.02239889	      0.13597657
      0.37169755	     20.00000000	     -0.00000000	     -0.00000000	      0.00000000	      0.00000000	      0.00000000	      0.25000000	      0.00000000	     -4.19389709	     75.88843258	    -10.48211345	   -158.41593045	     -6.50414741	    -86.19310924	      0.03662040	     -0.23289741	      1.04483450	     -2.71382066	     -0.00134746	     -0.07236368	     40.73101357	    608.74835988	      4.01105771	    -30.63524871	     -8.32788891	   -138.55062417	    -76.06913834	  -1122.21075994	     22.17544319	    314.05210515	     -2.58439849	     56.33310305	      0.00000000	      0.00000000	    -19.99999998	      0.00000000	     10.00000028	      0.00000000	      4.99999985	      0.00000000	   -119.99999986	     -0.00000000	     11.49999977	     -0.00000000	     -0.03000064	      0.00000000	     -0.00000000	      0.00000000	    -13.35449424	   -179.17666698	     11.93101061	    160.36248277	     10.52918574	    132.28968858	     -0.02241359	      0.05693415	     -0.02241359	      0.09618970	     -0.02241359	      0.07801502	     -0.02241359	      0.09380922	     -0.02241359	      0.14547331	     -0.02241359	      0.41176394	     -0.02241359	      0.09108814	     -0.02241359	      0.09501078	     -0.02241359	      0.05636675	     -0.02241359	      0.27963785	     -0.02241359	      0.10523391	     -0.02241359	      0.11692600	     -0.02241359	      0.13622630	     -0.02241359	      0.08943593	     -0.02241359	      0.08367691	     -0.02241359	      0.04585342	     -0.02241359	      0.02281211	     -0.02241359	      0.02871942	     -0.02241359	      0.12412601	     -0.02241359	      0.12045104	     -0.02241359	      0.08704089	     -0.02241359	      0.06184167	     -0.02241359	      0.09218468	      0.20000000	      0.03493622	      0.20000000	      0.03062549	      0.20000000	      0.04004544	      0.20000000	      0.06188693	      0.60000000	      0.04669347	      0.60000000	      0.04544447	      0.60000000	      0.06765720	      0.60000000	      0.07465366	      0.20000000	      0.08505501	     -0.02241359	      0.04646954	     -0.02241359	      0.07924345	     -0.02241359	      0.06066849	     -0.02241359	      0.02207317	     -0.02241359	      0.12238178	     -0.02241359	      0.45556126	     -0.02241359	      0.05828642	     -0.02241359	      0.13391495	     -0.02241359	      0.07307389	     -0.02241359	      0.24301553	     -0.02241359	      0.06638073	     -0.02241359	      0.06554424	     -0.02241359	      0.05770037	     -0.02241359	      0.11895704	     -0.02241359	      0.11276383	     -0.02241359	      0.04385542	     -0.02241359	      0.02477863	     -0.02241359	      0.02332648	     -0.02241359	      0.18252185	     -0.02241359	      0.13945923	     -0.02241359	      0.06773760	     -0.02241359	      0.04190389	     -0.02241359	      0.08593352	     -0.02241359	      0.03561976	     -0.02241359	      0.03422887	     -0.02241359	      0.04262489	     -0.02241359	      0.07211219	     -0.02241359	      0.05030461	     -0.02241359	      0.05155983	     -0.02241359	      0.07464108	     -0.02241359	      0.08888363	     -0.02241359	      0.09641129	     -0.02241359	      0.11812766	     -0.02241359	      0.13708283	     -0.02241359	      0.08301491	     -0.02241359	      0.10025211	     -0.02241359	      0.11091226	     -0.02241359	      0.13598023
      0.37181170	     20.00000000	     -0.00000000	     -0.00000000	      0.00000000	      0.00000000	      0.00000000	      0.25000000	      0.00000000	     -4.18523050	     75.95949973	    -10.50016998	   -157.95462108	     -6.51395439	    -85.63679189	      0.03659386	     -0.23213696	      1.04452463	     -2.71542724	     -0.00135575	     -0.07290396	     40.80046900	    608.16787510	      4.00750322	    -31.63538495	     -8.34368551	   -138.21974189	    -76.19715683	  -1120.77859015	     22.21157554	    318.95614803	     -2.57746733	     65.04415244	      0.00000000	      0.00000000	    -19.99999998	      0.00000000	     10.00000028	      0.00000000	      4.99999985	      0.00000000	   -119.99999986	     -0.00000000	     11.49999977	     -0.00000000	     -0.03000064	      0.00000000	     -0.00000000	      0.00000000	    -13.37493881	   -179.03488358	     11.94928414	    159.81089105	     10.54424591	    131.58369175	     -0.02242828	      0.05694570	     -0.02242828	      0.09621304	     -0.02242828	      0.07804232	     -0.02242828	      0.09383294	     -0.02242828	      0.14542246	     -0.02242828	      0.41162522	     -0.02242828	      0.09114853	     -0.02242828	      0.09498283	     -0.02242828	      0.05633736	     -0.02242828	      0.27959788	     -0.02242828	      0.10527471	     -0.02242828	      0.11697613	     -0.02242828	      0.13630541	     -0.02242828	      0.08940653	     -0.02242828	      0.08364751	     -0.02242828	      0.04587788	     -0.02242828	      0.02281377	     -0.02242828	      0.02873149	     -0.02242828	      0.12413453	     -0.02242828	      0.12051950	     -0.02242828	      0.08701444	     -0.02242828	      0.06182286	     -0.02242828	      0.09220374	      0.20000000	      0.03493663	      0.20000000	      0.03062611	      0.20000000	      0.04004618	      0.20000000	      0.06188687	      0.60000000	      0.04668968	      0.60000000	      0.04544276	      0.60000000	      0.06765357	      0.60000000	      0.07464999	      0.20000000	      0.08505266	     -0.02242828	      0.04646954	     -0.02242828	      0.07924345	     -0.02242828	      0.06066849	     -0.02242828	      0.02207317	     -0.02242828	      0.12238178	     -0.02242828	      0.45556126	     -0.02242828	      0.05828642	     -0.02242828	      0.13391495	     -0.02242828	      0.07307389	     -0.02242828	      0.24301553	     -0.02242828	      0.06638073	     -0.02242828	      0.06554424	     -0.02242828	      0.05770037	     -0.02242828	      0.11895704	     -0.02242828	      0.11276383	     -0.02242828	      0.04385542	     -0.02242828	      0.02477863	     -0.02242828	      0.02332648	     -0.02242828	      0.18252185	     -0.02242828	      0.13945923	     -0.02242828	      0.06773760	     -0.02242828	      0.04190389	     -0.02242828	      0.08593352	     -0.02242828	      0.03561976	     -0.02242828	      0.03422887	     -0.02242828	      0.04262490	     -0.02242828	      0.07211219	     -0.02242828	      0.05030461	     -0.02242828	      0.05155983	     -0.02242828	      0.07464108	     -0.02242828	      0.08888363	     -0.02242828	      0.09641129	     -0.02242828	      0.11812232	     -0.02242828	      0.13710610	     -0.02242828	      0.08298552	     -0.02242828	      0.10025705	     -0.02242828	      0.11087699	     -0.02242828	      0.13598380
